<?xml version="1.0" standalone="no"?>
<!DOCTYPE svg PUBLIC "-//W3C//DTD SVG 20010904//EN"
 "http://www.w3.org/TR/2001/REC-SVG-20010904/DTD/svg10.dtd">
<svg version="1.0" xmlns="http://www.w3.org/2000/svg"
 width="512.000000pt" height="512.000000pt" viewBox="0 0 512.000000 512.000000"
 preserveAspectRatio="xMidYMid meet">

<g transform="translate(0.000000,512.000000) scale(0.100000,-0.100000)"
fill="#000000" stroke="none">
<path d="M320 4947 c-49 -16 -133 -102 -148 -153 -17 -58 -17 -730 0 -788 16
-55 99 -138 154 -154 23 -7 67 -12 98 -12 l56 0 0 -80 0 -80 -56 0 c-31 0 -75
-5 -98 -12 -55 -16 -138 -99 -154 -154 -17 -58 -17 -730 0 -788 16 -55 99
-138 154 -154 23 -7 67 -12 98 -12 l56 0 0 -80 0 -80 -56 0 c-31 0 -75 -5 -98
-12 -55 -16 -138 -99 -154 -154 -17 -58 -17 -730 0 -788 16 -55 99 -138 154
-154 31 -9 237 -12 818 -12 l776 0 0 -337 c0 -334 1 -339 24 -388 114 -245
805 -413 1616 -391 741 19 1274 170 1376 391 l24 50 0 1235 0 1235 -24 50
c-94 203 -549 346 -1229 387 l-206 12 -12 28 c-16 40 -90 102 -137 116 -22 7
-65 12 -96 12 l-56 0 0 80 0 80 56 0 c31 0 75 5 98 12 55 16 138 99 154 154
17 58 17 730 0 788 -16 55 -99 138 -154 154 -56 16 -2981 16 -3034 -1z m3015
-172 l25 -24 0 -351 0 -351 -25 -24 -24 -25 -1471 0 -1471 0 -24 25 -25 24 0
351 0 351 25 24 24 25 1471 0 1471 0 24 -25z m-2375 -1015 l0 -80 -160 0 -160
0 0 80 0 80 160 0 160 0 0 -80z m1600 0 l0 -80 -720 0 -720 0 0 80 0 80 720 0
720 0 0 -80z m480 0 l0 -80 -160 0 -160 0 0 80 0 80 160 0 160 0 0 -80z m69
-251 c-619 -40 -1075 -190 -1165 -384 -22 -46 -24 -62 -24 -227 l0 -178 -775
0 -776 0 -24 25 -25 24 0 351 0 351 25 24 24 25 1433 -1 c839 -1 1381 -5 1307
-10z m646 -159 c473 -32 884 -135 1011 -256 43 -40 43 -68 0 -108 -113 -108
-471 -207 -891 -248 -169 -16 -701 -16 -870 0 -364 36 -673 113 -837 209 -101
59 -112 108 -36 163 247 179 956 284 1623 240z m-1585 -582 c184 -87 427 -145
783 -185 214 -24 760 -24 974 0 405 46 631 104 866 225 4 2 7 -130 7 -293 l0
-298 -34 -31 c-44 -43 -158 -97 -281 -135 -672 -208 -1883 -158 -2317 96 -92
54 -88 36 -88 371 0 162 3 292 8 290 4 -2 41 -20 82 -40z m-1210 -288 l0 -80
-160 0 -160 0 0 80 0 80 160 0 160 0 0 -80z m960 0 l0 -80 -400 0 -400 0 0 80
0 80 400 0 400 0 0 -80z m0 -640 l0 -400 -775 0 -776 0 -24 25 -25 24 0 351 0
351 25 24 24 25 776 0 775 0 0 -400z m250 128 c184 -87 427 -145 783 -185 214
-24 760 -24 974 0 405 46 631 104 866 225 4 2 7 -130 7 -293 l0 -298 -34 -31
c-97 -92 -401 -187 -738 -230 -408 -53 -947 -43 -1328 23 -276 49 -504 129
-586 207 l-34 31 0 298 c0 163 3 295 8 293 4 -2 41 -20 82 -40z m0 -800 c184
-87 427 -145 783 -185 214 -24 760 -24 974 0 405 46 631 104 866 225 4 2 7
-130 7 -293 l0 -298 -34 -31 c-113 -108 -471 -207 -891 -248 -171 -17 -702
-16 -870 0 -378 38 -698 120 -849 216 -30 19 -60 44 -65 55 -13 23 -16 605 -3
599 4 -2 41 -20 82 -40z"/>
<path d="M505 4615 c-25 -24 -25 -26 -25 -215 0 -257 -17 -240 240 -240 257 0
240 -17 240 240 0 257 17 240 -240 240 -189 0 -191 0 -215 -25z m295 -215 l0
-80 -80 0 -80 0 0 80 0 80 80 0 80 0 0 -80z"/>
<path d="M1145 4615 c-25 -24 -25 -26 -25 -215 0 -257 -17 -240 240 -240 189
0 191 0 215 25 25 24 25 26 25 215 0 257 17 240 -240 240 -189 0 -191 0 -215
-25z m295 -215 l0 -80 -80 0 -80 0 0 80 0 80 80 0 80 0 0 -80z"/>
<path d="M1760 4560 l0 -80 560 0 560 0 0 80 0 80 -560 0 -560 0 0 -80z"/>
<path d="M3040 4560 l0 -80 80 0 80 0 0 80 0 80 -80 0 -80 0 0 -80z"/>
<path d="M1760 4240 l0 -80 560 0 560 0 0 80 0 80 -560 0 -560 0 0 -80z"/>
<path d="M3040 4240 l0 -80 80 0 80 0 0 80 0 80 -80 0 -80 0 0 -80z"/>
<path d="M505 3335 c-25 -24 -25 -26 -25 -215 0 -257 -17 -240 240 -240 257 0
240 -17 240 240 0 257 17 240 -240 240 -189 0 -191 0 -215 -25z m295 -215 l0
-80 -80 0 -80 0 0 80 0 80 80 0 80 0 0 -80z"/>
<path d="M1145 3335 c-25 -24 -25 -26 -25 -215 0 -257 -17 -240 240 -240 189
0 191 0 215 25 25 24 25 26 25 215 0 257 17 240 -240 240 -189 0 -191 0 -215
-25z m295 -215 l0 -80 -80 0 -80 0 0 80 0 80 80 0 80 0 0 -80z"/>
<path d="M3360 2240 l0 -80 80 0 80 0 0 80 0 80 -80 0 -80 0 0 -80z"/>
<path d="M505 2055 c-25 -24 -25 -26 -25 -215 0 -257 -17 -240 240 -240 257 0
240 -17 240 240 0 257 17 240 -240 240 -189 0 -191 0 -215 -25z m295 -215 l0
-80 -80 0 -80 0 0 80 0 80 80 0 80 0 0 -80z"/>
<path d="M1145 2055 c-25 -24 -25 -26 -25 -215 0 -257 -17 -240 240 -240 189
0 191 0 215 25 25 24 25 26 25 215 0 257 17 240 -240 240 -189 0 -191 0 -215
-25z m295 -215 l0 -80 -80 0 -80 0 0 80 0 80 80 0 80 0 0 -80z"/>
<path d="M3360 1360 l0 -80 80 0 80 0 0 80 0 80 -80 0 -80 0 0 -80z"/>
<path d="M3360 640 l0 -80 80 0 80 0 0 80 0 80 -80 0 -80 0 0 -80z"/>
</g>
</svg>
