<svg version="1.0" xmlns="http://www.w3.org/2000/svg"
 width="512.000000pt" height="512.000000pt" viewBox="0 0 512.000000 512.000000"
 preserveAspectRatio="xMidYMid meet">

<g transform="translate(0.000000,512.000000) scale(0.100000,-0.100000)"
fill="#000000" stroke="none">
<path d="M1858 4855 c-216 -79 -371 -415 -457 -986 -18 -116 -51 -429 -51
-480 0 -13 -15 -18 -67 -24 -246 -26 -484 -143 -661 -324 -186 -190 -322 -477
-322 -680 0 -243 193 -498 457 -599 79 -31 219 -62 277 -62 l31 0 153 -438
c84 -240 152 -440 152 -443 0 -4 -16 -10 -35 -13 -56 -11 -119 -41 -160 -77
-121 -106 -92 -316 55 -399 l45 -25 520 -5 c500 -5 523 -6 599 -28 77 -21 91
-22 586 -22 506 0 507 0 576 24 352 119 642 378 771 688 34 84 37 88 67 88 90
0 216 58 292 134 179 179 179 473 0 652 -77 76 -181 123 -304 136 -19 3 -28
17 -53 93 -148 443 -479 752 -926 864 -137 34 -233 44 -418 43 -284 -2 -514
-40 -692 -115 l-81 -34 -32 90 -32 90 34 26 c68 53 206 181 289 269 216 227
360 470 426 719 21 82 26 121 26 243 1 123 -2 157 -22 228 -30 108 -50 132
-105 132 -170 0 -417 -101 -557 -227 l-37 -34 -7 88 c-20 285 -103 424 -252
422 -26 0 -65 -7 -85 -14z m141 -141 c50 -61 66 -144 66 -334 l0 -165 -58 -90
c-123 -189 -226 -447 -282 -708 -17 -77 -18 -79 -44 -73 -14 3 -65 11 -113 17
l-88 13 0 48 c0 79 28 332 56 498 48 289 121 525 205 666 56 92 142 159 211
163 9 1 30 -15 47 -35z m789 -289 c21 -98 10 -301 -22 -410 -35 -118 -129
-307 -213 -425 -67 -94 -329 -368 -426 -445 l-47 -38 -54 51 c-51 48 -141 111
-178 125 -23 8 -23 11 7 140 112 494 366 876 672 1008 67 29 182 59 218 56 28
-2 31 -6 43 -62z m-1252 -1185 c168 -21 290 -70 383 -155 98 -90 157 -206 176
-345 13 -100 49 -113 145 -51 237 153 787 209 1147 115 334 -86 602 -303 752
-609 89 -180 132 -348 152 -595 32 -382 -73 -693 -313 -926 -126 -123 -272
-213 -441 -273 l-89 -31 -456 0 c-257 0 -485 5 -522 10 -91 14 -212 76 -279
142 -141 138 -213 329 -215 573 -1 134 14 198 66 297 55 104 178 207 291 244
29 9 60 23 70 32 23 20 22 65 -3 87 -28 25 -76 15 -190 -41 -129 -64 -229
-162 -289 -284 -52 -106 -71 -195 -71 -331 0 -244 70 -455 206 -615 l55 -64
-388 0 c-350 0 -391 2 -422 18 -49 25 -74 63 -75 116 -2 78 66 125 204 142 61
7 90 26 90 59 0 31 -349 1026 -366 1046 -10 11 -41 18 -100 23 -200 16 -345
77 -465 196 -117 115 -179 259 -164 379 23 182 140 406 295 562 216 217 508
317 816 279z m2983 -1434 c26 -14 64 -43 85 -67 121 -134 122 -324 1 -457 -40
-45 -143 -102 -183 -102 -22 0 -24 3 -18 38 3 20 9 110 12 198 6 146 -1 257
-22 396 l-6 36 42 -9 c23 -5 63 -20 89 -33z"/>
<path d="M929 2847 c-106 -71 -106 -203 0 -274 98 -66 241 15 241 137 0 87
-73 160 -160 160 -32 0 -58 -7 -81 -23z m105 -113 c9 -8 16 -19 16 -24 0 -11
-29 -40 -40 -40 -11 0 -40 29 -40 40 0 11 29 40 40 40 5 0 16 -7 24 -16z"/>
</g>
</svg>
