<svg version="1.0" xmlns="http://www.w3.org/2000/svg"
 width="512.000000pt" height="512.000000pt" viewBox="0 0 512.000000 512.000000"
 preserveAspectRatio="xMidYMid meet">

<g transform="translate(0.000000,512.000000) scale(0.100000,-0.100000)"
fill="#000000" stroke="none">
<path d="M1730 5053 c-37 -14 -74 -49 -91 -87 -17 -37 -19 -69 -19 -314 0
-297 3 -316 56 -366 16 -15 49 -32 73 -38 l44 -11 -6 -57 c-7 -84 -38 -133
-162 -260 -192 -196 -195 -207 -195 -616 0 -267 2 -309 19 -362 l18 -60 -65
-16 c-36 -9 -86 -28 -111 -43 -55 -32 -395 -364 -456 -446 -76 -100 -87 -143
-94 -367 -6 -190 -7 -196 -35 -247 -16 -29 -39 -62 -51 -73 l-23 -22 -30 22
c-40 30 -109 37 -154 16 -19 -9 -125 -108 -236 -219 -169 -171 -201 -208 -207
-240 -14 -74 0 -105 95 -201 73 -74 93 -89 119 -89 43 0 71 28 71 72 0 31 -10
45 -72 108 l-73 73 183 183 182 182 502 -503 503 -502 -182 -182 -183 -183
-343 343 c-300 299 -346 342 -373 342 -39 0 -74 -36 -74 -76 0 -25 49 -78 353
-381 193 -193 362 -356 374 -362 30 -15 99 -14 131 3 15 8 118 106 229 218
171 173 202 209 208 241 9 48 1 91 -25 127 l-20 28 46 42 c57 52 108 75 201
89 151 23 167 34 383 246 136 135 210 201 246 219 58 28 118 92 134 142 10 30
14 32 36 24 37 -15 140 -12 178 4 51 21 117 86 139 136 15 33 21 75 25 162 l5
116 24 -9 c37 -14 114 -11 166 7 63 21 131 95 151 165 13 42 16 106 16 323 l0
270 123 -122 c111 -109 127 -122 159 -122 43 0 71 28 71 71 0 25 -17 48 -104
135 -98 99 -103 106 -85 119 44 33 147 30 216 -5 53 -28 445 -427 466 -475 14
-31 19 -83 24 -235 8 -237 23 -287 119 -393 l35 -38 -384 -384 -384 -384 -53
50 c-68 64 -159 107 -267 124 -46 8 -100 21 -118 31 -18 9 -101 83 -184 165
-138 137 -153 149 -187 149 -41 0 -77 -36 -77 -77 0 -27 131 -168 268 -289 92
-81 148 -107 265 -125 93 -14 144 -37 201 -89 l46 -42 -20 -28 c-26 -36 -34
-79 -25 -127 6 -32 37 -68 208 -241 111 -112 214 -210 229 -218 35 -18 101
-18 136 0 15 8 262 250 549 538 566 567 546 543 528 635 -6 32 -38 69 -207
240 -111 111 -217 210 -236 219 -45 21 -114 14 -154 -16 l-30 -22 -23 22 c-12
11 -35 44 -51 73 -24 44 -29 66 -32 145 l-4 93 26 -7 c20 -5 32 0 56 24 35 36
38 60 9 96 -15 19 -30 26 -55 26 -29 0 -34 4 -39 28 -14 70 -37 132 -66 177
-17 28 -124 143 -237 256 -226 225 -262 251 -385 272 -80 13 -165 0 -244 -39
-42 -20 -57 -23 -68 -14 -12 10 -15 93 -17 488 -4 558 0 529 -110 678 -48 64
-68 122 -68 195 0 56 1 59 28 65 48 11 92 45 113 85 19 38 20 56 17 334 -3
278 -4 295 -24 321 -11 15 -33 37 -48 48 -27 21 -37 21 -774 23 -411 1 -754
-1 -762 -4z m1458 -400 l-3 -258 -384 -3 c-379 -2 -385 -3 -408 -24 -38 -35
-29 -89 18 -113 23 -12 84 -15 322 -15 l295 0 4 -87 c5 -101 32 -171 99 -261
80 -105 74 -29 77 -962 2 -617 0 -842 -9 -863 -28 -67 -112 -89 -166 -43 l-28
24 -5 460 c-5 434 -6 461 -24 481 -23 26 -81 28 -108 4 -17 -15 -18 -49 -18
-652 0 -405 -4 -649 -10 -673 -21 -75 -109 -104 -167 -54 l-28 24 -5 666 -5
665 -22 22 c-29 29 -77 29 -106 0 l-22 -22 -2 -727 c0 -400 -2 -737 -2 -750
-1 -13 -14 -37 -30 -53 -34 -34 -92 -40 -130 -13 -52 37 -51 28 -51 817 0 686
-1 735 -17 750 -33 29 -68 31 -99 4 l-29 -25 -5 -667 -5 -667 -28 -24 c-41
-35 -97 -33 -139 5 l-33 29 -3 733 -2 733 -22 23 c-29 31 -72 30 -103 -2 -24
-23 -25 -29 -25 -164 0 -84 -4 -142 -10 -146 -27 -17 -118 66 -149 135 -19 42
-21 65 -21 345 0 370 -7 348 168 528 66 67 128 140 139 162 31 59 53 143 53
196 l0 47 91 4 c85 3 92 5 115 31 29 34 30 56 3 90 l-20 27 -177 2 -177 3 -3
258 -2 257 710 0 710 0 -2 -257z m-1595 -1944 l28 -13 -107 -107 c-90 -90
-107 -113 -107 -138 0 -43 28 -71 71 -71 32 0 48 13 158 122 l123 121 3 -499
3 -499 29 -53 c52 -93 131 -137 236 -130 36 3 72 8 81 12 12 5 20 -3 33 -38
10 -26 36 -62 63 -86 l45 -42 -133 -135 c-74 -74 -151 -143 -172 -154 -21 -11
-77 -26 -123 -34 -108 -17 -199 -60 -267 -124 l-53 -50 -384 384 -384 384 35
38 c96 106 111 156 119 393 5 152 10 204 24 235 11 26 88 111 224 248 244 246
265 260 372 253 30 -2 68 -10 83 -17z m3202 -1319 l180 -180 -503 -503 -502
-502 -182 183 -183 182 500 500 c275 275 502 500 505 500 3 0 86 -81 185 -180z"/>
<path d="M1965 4705 c-45 -44 -25 -117 35 -130 53 -12 108 41 96 91 -16 63
-87 84 -131 39z"/>
<path d="M4587 1298 c-24 -19 -38 -64 -28 -91 13 -34 39 -51 78 -51 44 0 73
32 73 78 0 60 -76 99 -123 64z"/>
<path d="M1492 4254 c-28 -19 -31 -83 -4 -107 52 -47 122 -17 122 53 0 44 -26
70 -70 70 -14 0 -36 -7 -48 -16z"/>
<path d="M3366 4249 c-52 -41 -23 -129 43 -129 71 0 101 80 47 127 -33 28 -56
29 -90 2z"/>
<path d="M1235 4085 c-14 -13 -25 -36 -25 -50 0 -33 42 -75 75 -75 35 0 75 42
75 78 0 36 -37 72 -74 72 -15 0 -37 -10 -51 -25z"/>
<path d="M3643 4090 c-46 -19 -57 -83 -20 -118 33 -31 80 -29 106 4 34 43 24
86 -26 112 -25 14 -30 14 -60 2z"/>
<path d="M1005 3890 c-28 -31 -24 -79 10 -107 30 -27 65 -25 98 4 23 22 22 78
-3 103 -26 26 -81 26 -105 0z"/>
<path d="M3874 3879 c-22 -11 -44 -48 -44 -73 0 -7 9 -25 21 -40 41 -52 129
-23 129 43 0 55 -59 93 -106 70z"/>
<path d="M812 3657 c-58 -62 11 -152 87 -113 47 25 56 79 18 114 -31 29 -77
29 -105 -1z"/>
<path d="M4052 3617 c-12 -13 -22 -36 -22 -51 0 -34 41 -76 75 -76 33 0 75 41
75 73 0 67 -83 102 -128 54z"/>
<path d="M674 3418 c-22 -10 -44 -47 -44 -72 0 -7 9 -25 21 -40 26 -33 79 -36
109 -6 30 30 27 83 -6 109 -29 23 -48 25 -80 9z"/>
<path d="M4212 3350 c-30 -28 -30 -82 0 -110 57 -53 143 5 117 79 -19 53 -77
68 -117 31z"/>
<path d="M542 3127 c-57 -61 5 -151 83 -121 8 4 23 20 31 36 39 75 -57 146
-114 85z"/>
<path d="M4350 3073 c-51 -19 -68 -85 -30 -123 25 -25 81 -26 103 -2 8 9 19
29 22 44 6 22 1 33 -23 58 -30 30 -43 34 -72 23z"/>
<path d="M483 2848 c-30 -15 -46 -58 -34 -91 12 -30 39 -47 75 -47 63 0 90 89
40 129 -29 23 -48 25 -81 9z"/>
<path d="M4385 2745 c-14 -13 -25 -36 -25 -50 0 -14 11 -37 25 -50 13 -14 36
-25 50 -25 14 0 37 11 50 25 14 13 25 36 25 50 0 14 -11 37 -25 50 -13 14 -36
25 -50 25 -14 0 -37 -11 -50 -25z"/>
<path d="M446 2539 c-50 -40 -23 -129 40 -129 58 0 92 45 73 98 -9 28 -44 52
-73 52 -7 0 -25 -9 -40 -21z"/>
<path d="M4424 2450 c-26 -10 -54 -48 -54 -71 0 -9 9 -28 21 -43 41 -52 129
-23 129 43 0 52 -51 89 -96 71z"/>
<path d="M473 2248 c-30 -15 -46 -58 -34 -91 12 -30 39 -47 75 -47 63 0 90 89
40 129 -29 23 -48 25 -81 9z"/>
<path d="M520 1940 c-30 -30 -27 -83 6 -109 36 -29 60 -26 96 9 24 25 29 36
23 58 -3 15 -14 35 -22 45 -22 23 -78 22 -103 -3z"/>
<path d="M3212 687 c-31 -33 -29 -80 4 -106 44 -34 86 -26 110 21 39 75 -57
146 -114 85z"/>
<path d="M1750 640 c-30 -30 -27 -83 6 -109 34 -27 57 -26 90 2 54 47 24 127
-47 127 -16 0 -38 -9 -49 -20z"/>
<path d="M1134 618 c-24 -11 -44 -48 -44 -79 0 -31 44 -69 80 -69 36 0 80 38
80 69 0 33 -21 68 -47 80 -29 13 -41 13 -69 -1z"/>
<path d="M2937 599 c-46 -27 -41 -105 9 -128 35 -16 48 -14 78 10 51 40 23
129 -41 129 -16 0 -36 -5 -46 -11z"/>
<path d="M2042 563 c-12 -10 -24 -30 -28 -45 -5 -22 0 -33 24 -58 36 -35 60
-38 96 -9 52 41 23 129 -43 129 -16 0 -38 -8 -49 -17z"/>
<path d="M2653 550 c-72 -30 -45 -140 34 -140 36 0 73 38 73 75 0 49 -59 85
-107 65z"/>
<path d="M2353 540 c-70 -28 -45 -140 31 -140 68 0 99 78 51 125 -25 26 -45
30 -82 15z"/>
</g>
</svg>
